<?xml version="1.0" encoding="iso-8859-1"?>
<!-- Generator: Adobe Illustrator 19.0.0, SVG Export Plug-In . SVG Version: 6.00 Build 0)  -->
<svg version="1.1" id="Capa_1" xmlns="http://www.w3.org/2000/svg" xmlns:xlink="http://www.w3.org/1999/xlink" x="0px" y="0px"
	 viewBox="0 0 60.25 60.25" style="enable-background:new 0 0 60.25 60.25;" xml:space="preserve">
<g>
	<path d="M59.25,8.578h-10.5c-0.553,0-1,0.447-1,1v21.885c0,3.55-2.888,6.438-6.438,6.438H10.984L2.365,10.578h37.262
		c0.553,0,1-0.447,1-1c0-0.553-0.447-1-1-1H1c-0.318,0-0.618,0.151-0.807,0.409C0.005,9.244-0.049,9.575,0.046,9.879l9.25,29.322
		C9.428,39.617,9.814,39.9,10.25,39.9h31.062c4.652,0,8.438-3.785,8.438-8.438V10.578h8.5v0.302c0,2.665-2.168,4.833-4.833,4.833
		c-0.553,0-1,0.447-1,1c0,0.553,0.447,1,1,1c3.768,0,6.833-3.065,6.833-6.833V9.578C60.25,9.025,59.803,8.578,59.25,8.578z"/>
	<path d="M44.436,41.044c-0.553,0-1,0.447-1,1s0.447,1,1,1c1.827,0,3.314,1.487,3.314,3.314c0,1.827-1.487,3.314-3.314,3.314
		c-1.827,0-3.315-1.487-3.315-3.314c0-0.803,0.291-1.578,0.82-2.183c0.258-0.296,0.319-0.715,0.157-1.071
		c-0.162-0.358-0.518-0.587-0.91-0.587L13.93,42.517c-0.957-0.919-2.25-1.492-3.68-1.492c-0.524,0-1.044,0.076-1.543,0.228
		c-0.529,0.159-0.828,0.718-0.668,1.246c0.16,0.529,0.72,0.829,1.246,0.668c0.312-0.094,0.636-0.142,0.965-0.142
		c1.833,0,3.324,1.491,3.324,3.323c0,1.833-1.491,3.324-3.324,3.324c-1.832,0-3.323-1.491-3.323-3.324
		c0-0.389,0.066-0.771,0.197-1.133c0.188-0.52-0.081-1.093-0.601-1.28c-0.523-0.19-1.094,0.081-1.28,0.601
		c-0.21,0.582-0.316,1.191-0.316,1.812c0,2.936,2.388,5.324,5.323,5.324c2.936,0,5.324-2.389,5.324-5.324
		c0-0.646-0.133-1.258-0.345-1.831l24.221-0.001c-0.216,0.585-0.329,1.208-0.329,1.842c0,2.931,2.384,5.314,5.315,5.314
		c2.931,0,5.314-2.384,5.314-5.314C49.75,43.427,47.367,41.044,44.436,41.044z"/>
</g>
<g>
</g>
<g>
</g>
<g>
</g>
<g>
</g>
<g>
</g>
<g>
</g>
<g>
</g>
<g>
</g>
<g>
</g>
<g>
</g>
<g>
</g>
<g>
</g>
<g>
</g>
<g>
</g>
<g>
</g>
</svg>
